<svg width="500" height="500" viewBox="0 0 500 500" fill="none" xmlns="http://www.w3.org/2000/svg">
<path d="M204.23 463.63C204.23 463.63 284.51 475.84 352.79 419.3C421.07 362.76 445.89 271.47 468 197.93C490.11 124.39 460.88 59.36 399 38.93C337.12 18.5 305.36 71.93 225.62 89.3C145.88 106.67 122.62 99.53 62.97 156.57C3.32 213.61 7.38 320.87 71.74 388.65C136.1 456.43 204.23 463.63 204.23 463.63Z" fill="#ABD1C6"/>
<path opacity="0.7" d="M204.23 463.63C204.23 463.63 284.51 475.84 352.79 419.3C421.07 362.76 445.89 271.47 468 197.93C490.11 124.39 460.88 59.36 399 38.93C337.12 18.5 305.36 71.93 225.62 89.3C145.88 106.67 122.62 99.53 62.97 156.57C3.32 213.61 7.38 320.87 71.74 388.65C136.1 456.43 204.23 463.63 204.23 463.63Z" fill="white"/>
<path d="M428.09 148.67H25.22V175.98H428.09V148.67Z" fill="#001E1D"/>
<path d="M54.8 13.19V156.54" stroke="#001E1D" stroke-width="2" stroke-miterlimit="10"/>
<path d="M112.09 13.19V156.54" stroke="#001E1D" stroke-width="2" stroke-miterlimit="10"/>
<path d="M169.37 13.19V156.54" stroke="#001E1D" stroke-width="2" stroke-miterlimit="10"/>
<path d="M226.66 13.19V156.54" stroke="#001E1D" stroke-width="2" stroke-miterlimit="10"/>
<path d="M283.94 13.19V156.54" stroke="#001E1D" stroke-width="2" stroke-miterlimit="10"/>
<path d="M341.23 13.19V156.54" stroke="#001E1D" stroke-width="2" stroke-miterlimit="10"/>
<path d="M398.51 13.19V156.54" stroke="#001E1D" stroke-width="2" stroke-miterlimit="10"/>
<path d="M26.16 49.95H427.15" stroke="#001E1D" stroke-width="2" stroke-miterlimit="10"/>
<path d="M26.16 104.56H427.15" stroke="#001E1D" stroke-width="2" stroke-miterlimit="10"/>
<path d="M488.61 12.52H386.6V175.97H488.61V12.52Z" fill="#001E1D"/>
<path d="M54.68 451.15V421.74" stroke="#ABD1C6" stroke-linecap="round" stroke-linejoin="round"/>
<path d="M48.68 451.06H60.54L57.58 483.49H51.65L48.68 451.06Z" fill="#001E1D" stroke="#001E1D" stroke-linecap="round" stroke-linejoin="round"/>
<path d="M54.45 448.5C53.4994 447.175 52.3005 446.048 50.92 445.18C49.2435 444.455 47.4365 444.081 45.61 444.08C45.61 444.08 47.38 450.49 54.45 448.5Z" fill="#ABD1C6"/>
<path d="M54.68 448.5C55.6306 447.175 56.8294 446.048 58.21 445.18C59.8864 444.455 61.6935 444.081 63.52 444.08C63.52 444.08 61.75 450.49 54.68 448.5Z" fill="#ABD1C6"/>
<path d="M54.45 440.54C53.5023 439.213 52.3029 438.085 50.92 437.22C49.2451 436.489 47.4375 436.111 45.61 436.11C45.61 436.11 47.38 442.53 54.45 440.54Z" fill="#ABD1C6"/>
<path d="M54.68 440.54C55.6276 439.213 56.8271 438.085 58.21 437.22C59.8848 436.489 61.6925 436.111 63.52 436.11C63.52 436.11 61.75 442.53 54.68 440.54Z" fill="#ABD1C6"/>
<path d="M54.45 432.57C53.5007 431.247 52.3015 430.122 50.92 429.26C49.2451 428.529 47.4375 428.151 45.61 428.15C45.61 428.15 47.38 434.56 54.45 432.57Z" fill="#ABD1C6"/>
<path d="M54.68 432.57C55.6292 431.247 56.8285 430.122 58.21 429.26C59.8848 428.529 61.6925 428.151 63.52 428.15C63.52 428.15 61.75 434.56 54.68 432.57Z" fill="#ABD1C6"/>
<path d="M54.45 424.61C53.4994 423.285 52.3005 422.158 50.92 421.29C49.2435 420.565 47.4365 420.191 45.61 420.19C45.61 420.19 47.38 426.6 54.45 424.61Z" fill="#ABD1C6"/>
<path d="M54.68 424.61C55.6306 423.285 56.8294 422.158 58.21 421.29C59.8864 420.565 61.6935 420.191 63.52 420.19C63.52 420.19 61.75 426.6 54.68 424.61Z" fill="#ABD1C6"/>
<path d="M54.68 421.74C53.676 420.369 53.036 418.766 52.82 417.08C52.9232 415.256 53.3997 413.472 54.22 411.84C54.22 411.84 59.64 416.32 54.68 421.74Z" fill="#ABD1C6"/>
<path d="M450.25 451.15V421.74" stroke="#ABD1C6" stroke-linecap="round" stroke-linejoin="round"/>
<path d="M444.26 451.06H456.12L453.15 483.49H447.22L444.26 451.06Z" fill="#001E1D" stroke="#001E1D" stroke-linecap="round" stroke-linejoin="round"/>
<path d="M450 448.5C449.044 447.176 447.842 446.049 446.46 445.18C444.787 444.455 442.983 444.081 441.16 444.08C441.16 444.08 443 450.49 450 448.5Z" fill="#ABD1C6"/>
<path d="M450.25 448.5C451.206 447.176 452.408 446.049 453.79 445.18C455.466 444.455 457.274 444.081 459.1 444.08C459.1 444.08 457.33 450.49 450.25 448.5Z" fill="#ABD1C6"/>
<path d="M450 440.54C449.047 439.214 447.845 438.086 446.46 437.22C444.788 436.489 442.984 436.111 441.16 436.11C441.16 436.11 443 442.53 450 440.54Z" fill="#ABD1C6"/>
<path d="M450.25 440.54C451.203 439.214 452.405 438.086 453.79 437.22C455.465 436.489 457.273 436.111 459.1 436.11C459.1 436.11 457.33 442.53 450.25 440.54Z" fill="#ABD1C6"/>
<path d="M450 432.57C449.046 431.248 447.843 430.123 446.46 429.26C444.788 428.529 442.984 428.151 441.16 428.15C441.16 428.15 443 434.56 450 432.57Z" fill="#ABD1C6"/>
<path d="M450.25 432.57C451.204 431.248 452.407 430.123 453.79 429.26C455.465 428.529 457.273 428.151 459.1 428.15C459.1 428.15 457.33 434.56 450.25 432.57Z" fill="#ABD1C6"/>
<path d="M450 424.61C449.044 423.286 447.842 422.159 446.46 421.29C444.787 420.566 442.983 420.191 441.16 420.19C441.16 420.19 443 426.6 450 424.61Z" fill="#ABD1C6"/>
<path d="M450.25 424.61C451.206 423.286 452.408 422.159 453.79 421.29C455.466 420.565 457.274 420.191 459.1 420.19C459.1 420.19 457.33 426.6 450.25 424.61Z" fill="#ABD1C6"/>
<path d="M450.25 421.74C449.246 420.369 448.606 418.766 448.39 417.08C448.495 415.255 448.975 413.471 449.8 411.84C449.8 411.84 455.22 416.32 450.25 421.74Z" fill="#ABD1C6"/>
<path d="M399.84 141.67V112.25" stroke="#ABD1C6" stroke-linecap="round" stroke-linejoin="round"/>
<path d="M393.85 141.57H405.71L402.74 174H396.81L393.85 141.57Z" fill="white" stroke="#001E1D" stroke-linecap="round" stroke-linejoin="round"/>
<path d="M399.62 139C398.664 137.676 397.462 136.549 396.08 135.68C394.407 134.956 392.603 134.581 390.78 134.58C390.78 134.58 392.55 141 399.62 139Z" fill="#ABD1C6"/>
<path d="M399.84 139C400.796 137.676 401.998 136.549 403.38 135.68C405.056 134.955 406.863 134.581 408.69 134.58C408.69 134.58 406.92 141 399.84 139Z" fill="#ABD1C6"/>
<path d="M399.62 131.05C398.664 129.726 397.462 128.599 396.08 127.73C394.407 127.006 392.603 126.631 390.78 126.63C390.78 126.63 392.55 133 399.62 131.05Z" fill="#ABD1C6"/>
<path d="M399.84 131.05C400.796 129.726 401.998 128.599 403.38 127.73C405.056 127.005 406.863 126.631 408.69 126.63C408.69 126.63 406.92 133 399.84 131.05Z" fill="#ABD1C6"/>
<path d="M399.62 123.09C398.664 121.766 397.462 120.639 396.08 119.77C394.409 119.039 392.604 118.661 390.78 118.66C390.78 118.66 392.55 125.08 399.62 123.09Z" fill="#ABD1C6"/>
<path d="M399.84 123.09C400.796 121.766 401.998 120.639 403.38 119.77C405.055 119.039 406.862 118.661 408.69 118.66C408.69 118.66 406.92 125.08 399.84 123.09Z" fill="#ABD1C6"/>
<path d="M399.62 115.13C398.667 113.804 397.465 112.676 396.08 111.81C394.409 111.079 392.604 110.701 390.78 110.7C390.78 110.7 392.55 117.12 399.62 115.13Z" fill="#ABD1C6"/>
<path d="M399.84 115.13C400.793 113.804 401.995 112.676 403.38 111.81C405.055 111.079 406.862 110.701 408.69 110.7C408.69 110.7 406.92 117.12 399.84 115.13Z" fill="#ABD1C6"/>
<path d="M399.84 112.25C398.836 110.879 398.196 109.276 397.98 107.59C398.091 105.769 398.571 103.99 399.39 102.36C399.39 102.36 404.81 106.83 399.84 112.25Z" fill="#ABD1C6"/>
<path d="M432.01 18.76H397.11V65.8H432.01V18.76Z" fill="#ABD1C6" stroke="#001E1D" stroke-linecap="round" stroke-linejoin="round"/>
<path d="M426.94 25.59H402.17V58.98H426.94V25.59Z" fill="white" stroke="#001E1D" stroke-linecap="round" stroke-linejoin="round"/>
<path d="M474.01 37.1H445.61V75.38H474.01V37.1Z" fill="#ABD1C6" stroke="#001E1D" stroke-linecap="round" stroke-linejoin="round"/>
<path d="M469.88 42.65H449.73V69.81H469.88V42.65Z" fill="white" stroke="#001E1D" stroke-linecap="round" stroke-linejoin="round"/>
<path d="M444.11 79.28H419.83V112H444.11V79.28Z" fill="#ABD1C6" stroke="#001E1D" stroke-linecap="round" stroke-linejoin="round"/>
<path d="M440.59 84.03H423.36V107.25H440.59V84.03Z" fill="white" stroke="#001E1D" stroke-linecap="round" stroke-linejoin="round"/>
<path d="M218.75 98.76H187.18C186.837 98.7626 186.509 98.9008 186.267 99.1443C186.026 99.3878 185.89 99.7169 185.89 100.06C185.89 100.402 186.026 100.73 186.268 100.972C186.51 101.214 186.838 101.35 187.18 101.35H220V100.06C220.003 99.723 219.874 99.3982 219.64 99.1553C219.406 98.9123 219.087 98.7704 218.75 98.76Z" fill="white" stroke="#001E1D" stroke-linecap="round" stroke-linejoin="round"/>
<path d="M205.4 66.37H165.21C164.398 66.37 163.74 67.0281 163.74 67.84V94.69C163.74 95.5019 164.398 96.16 165.21 96.16H205.4C206.212 96.16 206.87 95.5019 206.87 94.69V67.84C206.87 67.0281 206.212 66.37 205.4 66.37Z" fill="#001E1D" stroke="#001E1D" stroke-linecap="round" stroke-linejoin="round"/>
<path d="M198.3 74.32H170.6C169.788 74.32 169.13 74.9781 169.13 75.79V94.7C169.13 95.5119 169.788 96.17 170.6 96.17H198.3C199.112 96.17 199.77 95.5119 199.77 94.7V75.79C199.77 74.9781 199.112 74.32 198.3 74.32Z" fill="#474747" stroke="#001E1D" stroke-linecap="round" stroke-linejoin="round"/>
<path d="M185.82 87.94H182.8C181.988 87.94 181.33 88.5981 181.33 89.41V101.51C181.33 102.322 181.988 102.98 182.8 102.98H185.82C186.632 102.98 187.29 102.322 187.29 101.51V89.41C187.29 88.5981 186.632 87.94 185.82 87.94Z" fill="white" stroke="#001E1D" stroke-linecap="round" stroke-linejoin="round"/>
<path d="M247.73 103.55L259 61.36C259.388 59.9137 260.284 58.6552 261.523 57.8144C262.762 56.9735 264.263 56.6064 265.75 56.78L282.41 57.41C283.223 57.5067 284.009 57.7627 284.723 58.1634C285.437 58.5641 286.065 59.1016 286.572 59.7452C287.078 60.3889 287.452 61.126 287.673 61.9144C287.894 62.7028 287.958 63.527 287.86 64.34L283 103.77L247.73 103.55Z" fill="#B5B5B5" stroke="#001E1D" stroke-linecap="round" stroke-linejoin="round"/>
<path d="M253.19 73.64H242.54L225 81.71L225.85 89.1L240.29 86.52L240.63 104.39H263L266.95 93.39L271.95 103.39C271.988 103.468 272.045 103.536 272.115 103.589C272.184 103.641 272.266 103.676 272.352 103.69C272.438 103.705 272.526 103.699 272.609 103.673C272.692 103.647 272.768 103.601 272.83 103.54L290 86.18L287.59 83.94L274.88 90.64L268.69 76.38L253.19 73.64Z" fill="#ABD1C6" stroke="#001E1D" stroke-linecap="round" stroke-linejoin="round"/>
<path d="M248.72 73.64C248.72 73.64 244.6 82.74 244.6 88.58C244.6 94.42 248.21 101.64 248.21 101.64L254.39 102.84C257.396 98.8502 259.399 94.1961 260.23 89.27C260.857 84.6011 261.031 79.8825 260.75 75.18C260.75 75.18 256.45 73.46 248.72 73.64Z" fill="#ABD1C6" stroke="#001E1D" stroke-linecap="round" stroke-linejoin="round"/>
<path d="M251.13 75C249.987 79.628 249.241 84.3451 248.9 89.1C248.55 95.8 248.21 104.39 248.21 104.39H253.71C253.71 104.39 256.45 84.46 257.49 79.82C258.53 75.18 256.45 72.09 251.13 75Z" fill="white" stroke="#001E1D" stroke-linecap="round" stroke-linejoin="round"/>
<path d="M248 56.92C248 56.92 244.27 56.22 243.85 53.15C243.43 50.08 247.97 46.52 253.85 45.2C259.73 43.88 266.22 49.41 267.08 54.49C267.94 59.57 269.85 65.9 268.65 68.49C267.45 71.08 261.85 72.02 255.89 72.84C249.93 73.66 246.74 70.62 246.63 68.55C246.52 66.48 248 56.92 248 56.92Z" fill="#001E1D" stroke="#001E1D" stroke-linecap="round" stroke-linejoin="round"/>
<path d="M253.19 72.78C253.19 72.78 251.47 72.78 250.96 73.64C250.45 74.5 246.96 80.64 246.96 80.64L253.31 79.78L260.36 82.36C260.36 82.36 260.53 75.66 259.84 74.11C259.15 72.56 253.19 72.78 253.19 72.78Z" fill="white" stroke="#001E1D" stroke-linecap="round" stroke-linejoin="round"/>
<path d="M252.68 69.34C252.68 69.34 252.33 77.07 252.33 78.79C252.341 79.2345 252.5 79.6626 252.782 80.0066C253.064 80.3506 253.452 80.5909 253.886 80.6895C254.319 80.7881 254.773 80.7395 255.176 80.5512C255.579 80.363 255.907 80.0459 256.11 79.65C257.31 77.76 258.34 69.34 258.34 69.34H252.68Z" fill="white" stroke="#001E1D" stroke-linecap="round" stroke-linejoin="round"/>
<path d="M238.07 55.94L243.57 68.48L248.9 66.42L243.57 54.57L238.07 55.94Z" fill="#001E1D" stroke="#001E1D" stroke-linecap="round" stroke-linejoin="round"/>
<path d="M253.13 51.54C253.54 51.94 250.44 55.25 248.04 55.94C246.88 56.27 248.04 61.61 247.69 63.84C247.32 66.27 252.38 71.41 254.42 71.13C258.86 70.52 260.56 69.13 261.15 67.13C261.359 66.2303 261.513 65.3186 261.61 64.4C261.61 64.4 263.84 65.94 264.19 63.71C264.54 61.48 263.33 60.79 263.33 60.79C263.33 60.79 253.53 59 253.13 51.54Z" fill="white" stroke="#001E1D" stroke-linecap="round" stroke-linejoin="round"/>
<path d="M287.55 83.94L289.78 78.1L293.63 76.43L293.74 76.39V77.93L291.5 79.31H295.45L297.69 76.9L298.55 77.42L296.48 82.91L289.96 86.18L287.55 83.94Z" fill="white" stroke="#001E1D" stroke-linecap="round" stroke-linejoin="round"/>
<path d="M240.31 68.83L237.73 61.61L241.51 57.49L242.51 58.17C242.51 58.17 241.65 61.78 241.65 62.3C242.411 64.175 243.272 66.0076 244.23 67.79L238.23 75.18L235.66 72.43L240.31 68.83Z" fill="white" stroke="#001E1D" stroke-linecap="round" stroke-linejoin="round"/>
<path d="M235.67 72.43L222.86 81.43C222.265 81.8457 221.788 82.409 221.476 83.0647C221.163 83.7203 221.027 84.4458 221.08 85.17L221.15 86.17C221.225 87.1569 221.648 88.0851 222.344 88.7886C223.04 89.4921 223.964 89.925 224.95 90.01C225.7 90.0742 226.453 89.9353 227.13 89.608C227.808 89.2808 228.384 88.7771 228.8 88.15L238.24 75.26L235.67 72.43Z" fill="#ABD1C6" stroke="#001E1D" stroke-linecap="round" stroke-linejoin="round"/>
<path d="M159.07 101.21H332.37V171.21H159.07C158.68 171.21 158.306 171.055 158.031 170.779C157.755 170.504 157.6 170.13 157.6 169.74V102.74C157.592 102.542 157.624 102.344 157.694 102.159C157.764 101.974 157.871 101.804 158.009 101.662C158.146 101.519 158.311 101.405 158.493 101.327C158.676 101.25 158.872 101.21 159.07 101.21Z" fill="white" stroke="#001E1D" stroke-linecap="round" stroke-linejoin="round"/>
<path d="M276.52 94.12H294.16L291.65 101.34H274.01L276.52 94.12Z" fill="#001E1D" stroke="#001E1D" stroke-linecap="round" stroke-linejoin="round"/>
<path d="M307.18 94.12H276.98L279.49 101.34H309.69L307.18 94.12Z" fill="white" stroke="#001E1D" stroke-linecap="round" stroke-linejoin="round"/>
<path d="M285.9 96.61L286.11 97.15C286.38 97.82 286.2 98.15 285.55 98.15H285.24L285.87 99.71H285.21L283.56 95.56H284.56C284.866 95.5699 285.161 95.677 285.402 95.8658C285.643 96.0546 285.817 96.3153 285.9 96.61ZM284.45 96.18L285.01 97.59H285.32C285.52 97.59 285.6 97.49 285.48 97.19L285.23 96.57C285.11 96.27 284.96 96.18 284.75 96.18H284.45Z" fill="#001E1D"/>
<path d="M288.82 99.74C288.704 99.5851 288.613 99.413 288.55 99.23L288.29 98.58C288.14 98.19 287.95 98.05 287.65 98.05H287.43L288.1 99.74H287.45L285.79 95.59H286.79C287.095 95.5778 287.396 95.6703 287.641 95.8522C287.887 96.034 288.063 96.2944 288.14 96.59L288.27 96.92C288.437 97.34 288.407 97.62 288.18 97.76C288.367 97.8402 288.534 97.9606 288.668 98.1128C288.803 98.2649 288.903 98.4449 288.96 98.64L289.22 99.28C289.279 99.4645 289.371 99.6372 289.49 99.79L288.82 99.74ZM286.68 96.18L287.19 97.45H287.45C287.69 97.45 287.8 97.35 287.66 97.02L287.5 96.61C287.38 96.31 287.23 96.18 287 96.18H286.68Z" fill="#001E1D"/>
<path d="M289.53 97.34H290.42L290.66 97.93H289.77L290.25 99.14H291.38L291.62 99.74H289.84L288.18 95.59H290L290.23 96.18H289.11L289.53 97.34Z" fill="#001E1D"/>
<path d="M291.22 95.54C291.525 95.5441 291.821 95.6424 292.068 95.8214C292.315 96.0004 292.501 96.2514 292.6 96.54V96.67H292L291.93 96.5C291.82 96.2 291.65 96.09 291.44 96.09C291.23 96.09 291.16 96.2 291.28 96.5C291.62 97.36 292.96 97.5 293.44 98.7C293.7 99.37 293.52 99.75 292.88 99.75C292.567 99.746 292.263 99.642 292.013 99.4531C291.763 99.2642 291.579 99.0003 291.49 98.7L291.39 98.45H292L292.11 98.74C292.23 99.04 292.41 99.15 292.61 99.15C292.81 99.15 292.91 99.04 292.79 98.74C292.45 97.89 291.11 97.74 290.64 96.54C290.41 95.92 290.59 95.54 291.22 95.54Z" fill="#001E1D"/>
<path d="M292.58 95.59H293.23L294.89 99.74H294.24L292.58 95.59Z" fill="#001E1D"/>
<path d="M293.71 95.59H294.71C295.017 95.5865 295.317 95.6819 295.565 95.862C295.814 96.042 295.998 96.2973 296.09 96.59L296.93 98.69C297.2 99.36 297.02 99.69 296.37 99.69H295.37L293.71 95.59ZM294.6 96.18L295.78 99.18H296.15C296.36 99.18 296.44 99.08 296.32 98.78L295.46 96.62C295.34 96.33 295.17 96.22 294.96 96.22L294.6 96.18Z" fill="#001E1D"/>
<path d="M297.48 97.34H298.37L298.61 97.93H297.72L298.2 99.14H299.33L299.57 99.74H297.79L296.13 95.59H297.91L298.14 96.18H297L297.48 97.34Z" fill="#001E1D"/>
<path d="M299.35 96.73L300.55 99.73H300L298.35 95.58H299.16L300.83 98.06L299.83 95.58H300.41L302 99.74H301.33L299.35 96.73Z" fill="#001E1D"/>
<path d="M300.65 95.59H302.65L302.89 96.18H302.21L303.63 99.74H303L301.57 96.18H300.89L300.65 95.59Z" fill="#001E1D"/>
<path d="M156.14 101.21H335.3V104.72H156.14C155.75 104.72 155.376 104.565 155.101 104.289C154.825 104.014 154.67 103.64 154.67 103.25V102.68C154.67 102.29 154.825 101.916 155.101 101.641C155.376 101.365 155.75 101.21 156.14 101.21Z" fill="#001E1D"/>
<path d="M318.19 275.63L344.84 282.13C345.123 282.218 345.383 282.368 345.6 282.568C345.818 282.769 345.989 283.016 346.1 283.29C346.211 283.565 346.26 283.861 346.242 284.156C346.225 284.452 346.142 284.74 346 285L323.91 326.09L333.25 333.92L323.32 331.81L315.49 328.62L316.65 323.69L330.76 289.63C330.829 289.446 330.853 289.247 330.829 289.051C330.805 288.856 330.734 288.669 330.622 288.507C330.51 288.344 330.36 288.212 330.186 288.12C330.011 288.028 329.817 287.98 329.62 287.98H300C300 287.98 294 282.39 299.8 274.8L318.19 275.63Z" fill="#001E1D" stroke="#001E1D" stroke-linecap="round" stroke-linejoin="round"/>
<path d="M309.35 326.29V299.4H305.56V295.8H315.34V299.4H311.55V325.93L329.92 330.71V332.11H327.92L311.55 329.03V332.11H309.35V329.29L294.37 332.11H292.38V330.71L309.35 326.29Z" fill="#001E1D"/>
<path d="M319.93 296H290.78L288 291.36C286.958 289.64 286.331 287.7 286.17 285.695C286.008 283.69 286.317 281.675 287.07 279.81L288.83 275.43" stroke="#001E1D" stroke-width="2" stroke-linecap="round" stroke-linejoin="round"/>
<path d="M320.93 248.67L326.93 256.36L342.5 257.76C342.5 257.76 348.98 254.76 350.38 254.76C351.78 254.76 355.63 260.89 355.63 260.89H341.77L325.67 263.52L318.32 258.61L320.93 248.67Z" fill="#5C5C5C" stroke="#001E1D" stroke-linecap="round" stroke-linejoin="round"/>
<path d="M320.53 245.08L324.25 268.08C324.55 269.93 324.69 275.29 322.55 276.31C322.14 276.471 321.699 276.539 321.26 276.51C318.31 276.51 315.46 275.66 312.56 275.66H301.63C300.955 275.66 300.294 275.465 299.728 275.098C299.162 274.73 298.715 274.207 298.44 273.59L298.24 273.14C297.932 272.446 297.858 271.67 298.03 270.93C299.32 265.42 304.92 244.21 306.16 241.93C307.55 239.34 312.35 237.54 312.35 237.54L320.53 245.08Z" fill="#ABD1C6" stroke="#001E1D" stroke-linecap="round" stroke-linejoin="round"/>
<path d="M324.7 236.89L321.51 238.31L319.2 243.31L312.81 237.1L314.58 233.02C314.58 233.02 312.27 229.64 312.81 226.62C313.35 223.6 319.02 220.41 322.04 223.25C325.06 226.09 324.7 236.89 324.7 236.89Z" fill="white" stroke="#001E1D" stroke-linecap="round" stroke-linejoin="round"/>
<path d="M325.89 223C325.89 223 328 222.53 327.77 220.66C327.54 218.79 325.89 220.89 325.89 218.79C325.89 216.69 327.77 215.98 326.6 214.79C325.43 213.6 321.68 212.92 320.75 214.56C319.82 216.2 320.04 217.13 319.34 217.13C318.64 217.13 316.77 215.49 315.34 217.6C313.91 219.71 314.41 220.41 314.41 220.41C314.41 220.41 309.03 222.51 309.03 226.02C309.03 229.53 314.56 232.94 314.56 232.94C314.56 232.94 318.15 233.27 319.79 231.64C321.43 230.01 321.9 227.19 322.36 226.02C322.82 224.85 325.89 223 325.89 223Z" fill="#001E1D" stroke="#001E1D" stroke-linecap="round" stroke-linejoin="round"/>
<path d="M325.06 221.45L326.65 226.24V227.48L328.93 229.76V229.82L327.18 231.92L327.35 236.54L323.35 236.83C322.403 236.897 321.459 236.659 320.658 236.149C319.857 235.64 319.24 234.886 318.9 234L317.95 231.56C317.46 231.36 317.044 231.013 316.76 230.568C316.475 230.122 316.335 229.598 316.36 229.07C316.36 227.07 316.18 226.41 317.24 226.41C318.021 226.437 318.796 226.554 319.55 226.76L320.62 226.23L320.44 224.45L322.04 223.21L322.22 221.44L325.06 221.45Z" fill="white" stroke="#001E1D" stroke-linecap="round" stroke-linejoin="round"/>
<path d="M313.34 234.5L322.73 243.68L320.93 248.67L310.95 237.49L313.34 234.5Z" fill="#ABD1C6" stroke="#001E1D" stroke-linecap="round" stroke-linejoin="round"/>
<path d="M297.57 295.01H328.12C329.446 295.01 330.52 293.935 330.52 292.61V289.82C330.52 288.495 329.446 287.42 328.12 287.42H297.57C296.245 287.42 295.17 288.495 295.17 289.82V292.61C295.17 293.935 296.245 295.01 297.57 295.01Z" fill="#B5B5B5" stroke="#001E1D" stroke-linecap="round" stroke-linejoin="round"/>
<path d="M291.428 284.323L294.592 283.912C295.468 283.799 296.086 282.996 295.973 282.12L293.122 260.144C293.009 259.268 292.206 258.649 291.33 258.763L288.166 259.173C287.29 259.287 286.672 260.09 286.785 260.966L289.636 282.942C289.749 283.818 290.552 284.436 291.428 284.323Z" fill="#B5B5B5" stroke="#001E1D" stroke-linecap="round" stroke-linejoin="round"/>
<path d="M313.34 242.48L322.5 258.76L339.7 258.06C339.7 258.06 347.09 256.46 348.29 256.26C349.49 256.06 352.88 260.06 352.88 260.06H340.88L319.09 266.55L305.54 250.07" fill="#ABD1C6"/>
<path d="M313.34 242.48L322.5 258.76L339.7 258.06C339.7 258.06 347.09 256.46 348.29 256.26C349.49 256.06 352.88 260.06 352.88 260.06H340.88L319.09 266.55L305.54 250.07" stroke="#001E1D" stroke-linecap="round" stroke-linejoin="round"/>
<path d="M339.73 260.33L339.29 258.05H339.7C339.7 258.05 347.09 256.45 348.29 256.25C349.49 256.05 352.88 260.05 352.88 260.05H340.88L339.73 260.33Z" fill="white" stroke="#001E1D" stroke-linecap="round" stroke-linejoin="round"/>
<path d="M434.55 287C434.55 287 453.06 321.25 453.64 322.62C454.197 324.187 454.481 325.837 454.48 327.5C454.48 327.5 454.27 327.92 453.42 327.92C452.57 327.92 443.88 331.74 441.55 331.74H437.31L440.49 328.98L444.09 324.98C444.09 324.98 446.09 325.44 446.09 321.62C446.09 317.8 423.53 287.45 422.68 285.12C421.83 282.79 426.5 281.31 427.98 281.52C429.46 281.73 433.71 282.37 433.71 282.37L434.55 287Z" fill="#5C5C5C" stroke="#001E1D" stroke-linecap="round" stroke-linejoin="round"/>
<path d="M450.88 273.74L419.14 282.82C418.85 282.904 418.583 283.053 418.358 283.256C418.134 283.458 417.958 283.709 417.845 283.989C417.731 284.269 417.683 284.571 417.702 284.873C417.722 285.174 417.81 285.467 417.96 285.73L443 324L432.86 333.09L439.86 333.96L445.37 331.96L448.48 329.38L447.32 324.45L433.2 290.35C433.13 290.166 433.106 289.968 433.13 289.773C433.154 289.577 433.225 289.391 433.337 289.229C433.45 289.068 433.6 288.936 433.774 288.846C433.949 288.755 434.143 288.709 434.34 288.71H467.84C467.84 288.71 475.33 281.54 469.54 273.95L450.88 273.74Z" fill="white" stroke="#001E1D" stroke-linecap="round" stroke-linejoin="round"/>
<path d="M439.28 236.89L442.47 238.31L444.78 243.31L451.17 237.1L449.4 233C449.4 233 451.7 229.62 451.17 226.6C450.64 223.58 444.96 220.39 441.94 223.23C438.92 226.07 439.28 236.89 439.28 236.89Z" fill="white" stroke="#001E1D" stroke-linecap="round" stroke-linejoin="round"/>
<path d="M438.92 221.45L437.33 226.24V227.48L435.05 229.76V229.82L436.8 231.92L436.63 236.54L440.63 236.83C441.577 236.899 442.522 236.662 443.324 236.154C444.127 235.647 444.746 234.895 445.09 234.01L446.03 231.57C446.522 231.372 446.94 231.026 447.226 230.58C447.513 230.134 447.654 229.61 447.63 229.08C447.63 227.08 447.81 226.42 446.74 226.42C445.962 226.447 445.191 226.565 444.44 226.77L443.37 226.24L443.55 224.46L441.95 223.22L441.77 221.45H438.92Z" fill="white" stroke="#001E1D" stroke-linecap="round" stroke-linejoin="round"/>
<path d="M444.73 248L437.03 257.8L414.8 257.27C414.8 257.27 408.15 254.47 407.1 255C406.05 255.53 403.77 259.37 403.77 259.37L409.03 258.5C410.199 259.019 411.434 259.372 412.7 259.55C413.599 259.509 414.486 259.33 415.33 259.02L442.28 264.45L450.16 256.57L444.73 248Z" fill="#5C5C5C" stroke="#001E1D" stroke-linecap="round" stroke-linejoin="round"/>
<path d="M443.67 245.7C443.67 245.7 442.4 257.99 443.67 259.7C444.94 261.41 450.24 263.3 450.46 263.94C450.68 264.58 450.46 272.42 450.88 273.06C452.036 274.108 453.398 274.902 454.88 275.39H468.23C468.23 275.39 470.36 273.69 470.36 272.21C470.36 270.73 465.75 265.21 465.75 265.21C465.75 265.21 463.57 248.47 461.45 244.21C459.33 239.95 450.59 237.34 449.87 237.07C449.15 236.8 443.67 245.7 443.67 245.7Z" fill="#ABD1C6" stroke="#001E1D" stroke-linecap="round" stroke-linejoin="round"/>
<path d="M450.63 234.5L441.25 243.68L443.05 248.67L453.03 237.49L450.63 234.5Z" fill="#ABD1C6" stroke="#001E1D" stroke-linecap="round" stroke-linejoin="round"/>
<path d="M450.63 242.48L441.48 258.76L424.27 258.06C424.27 258.06 416.89 256.46 415.69 256.26C414.49 256.06 411.09 260.06 411.09 260.06H423.09L444.88 266.55L458.43 250.07" fill="#ABD1C6"/>
<path d="M450.63 242.48L441.48 258.76L424.27 258.06C424.27 258.06 416.89 256.46 415.69 256.26C414.49 256.06 411.09 260.06 411.09 260.06H423.09L444.88 266.55L458.43 250.07" stroke="#001E1D" stroke-linecap="round" stroke-linejoin="round"/>
<path d="M424.25 260.33L424.69 258.05H424.27C424.27 258.05 416.89 256.45 415.69 256.25C414.49 256.05 411.09 260.05 411.09 260.05H423.09L424.25 260.33Z" fill="white" stroke="#001E1D" stroke-linecap="round" stroke-linejoin="round"/>
<path d="M436 221.32C436 221.32 446.39 233.49 450.42 233.61C457.62 233.82 456.14 222.8 453.81 220.04C452.37 218.29 437.31 212.2 436 221.32Z" fill="#001E1D" stroke="#001E1D" stroke-linecap="round" stroke-linejoin="round"/>
<path d="M446.85 226C446.85 226 447.91 231.09 446.22 234.69C444.53 238.29 441.76 237.87 442.4 238.51C443.04 239.15 447.06 242.75 450.88 240.84C454.7 238.93 456 231.28 456 228.1" fill="#001E1D"/>
<path d="M446.85 226C446.85 226 447.91 231.09 446.22 234.69C444.53 238.29 441.76 237.87 442.4 238.51C443.04 239.15 447.06 242.75 450.88 240.84C454.7 238.93 456 231.28 456 228.1" stroke="#001E1D" stroke-linecap="round" stroke-linejoin="round"/>
<path d="M469.54 273.26L450.88 273.05L421.88 281.35C424.2 282.61 429.52 286.16 433.27 288.71C433.46 288.31 438.75 289.19 439.27 289.19L467.84 288C467.84 288 475.33 280.85 469.54 273.26Z" fill="#001E1D"/>
<path d="M465.87 326.29V299.4H469.66V295.8H459.88V299.4H463.67V325.93L445.3 330.71V332.11H447.29L463.67 329.03V332.11H465.87V329.29L480.84 332.11H482.84V330.71L465.87 326.29Z" fill="#001E1D"/>
<path d="M455.28 296H484.44L487.26 291.36C488.306 289.641 488.936 287.702 489.099 285.696C489.262 283.691 488.954 281.675 488.2 279.81L486.43 275.43" stroke="#001E1D" stroke-width="2" stroke-linecap="round" stroke-linejoin="round"/>
<path d="M477.65 287.41H447.1C445.774 287.41 444.7 288.485 444.7 289.81V292.6C444.7 293.925 445.774 295 447.1 295H477.65C478.975 295 480.05 293.925 480.05 292.6V289.81C480.05 288.485 478.975 287.41 477.65 287.41Z" fill="#B5B5B5" stroke="#001E1D" stroke-linecap="round" stroke-linejoin="round"/>
<path d="M485.864 259.407L482.706 258.993C481.831 258.878 481.029 259.494 480.914 260.369L478.033 282.307C477.918 283.182 478.534 283.984 479.409 284.099L482.567 284.514C483.442 284.629 484.244 284.013 484.359 283.138L487.24 261.199C487.355 260.324 486.739 259.522 485.864 259.407Z" fill="#B5B5B5" stroke="#001E1D" stroke-width="0.998499" stroke-linecap="round" stroke-linejoin="round"/>
<path d="M374.56 261.33L371.35 244.09H369.71L372.92 261.33H366.58V262.51H373.14H374.78L374.56 261.33Z" fill="white" stroke="#001E1D" stroke-width="0.75" stroke-linecap="round" stroke-linejoin="round"/>
<path d="M365.13 254.7L366.92 255.04L369.96 231.35L368.17 231L365.13 254.7Z" fill="white" stroke="#001E1D" stroke-width="0.75" stroke-linecap="round" stroke-linejoin="round"/>
<path d="M369.71 232.59L371.35 235.32L368.8 253.93L366.92 255.04L369.71 232.59Z" fill="white" stroke="#001E1D" stroke-width="0.75" stroke-linecap="round" stroke-linejoin="round"/>
<path d="M362.48 261.53H347.24V262.41H362.48V261.53Z" fill="white" stroke="#001E1D" stroke-width="0.75" stroke-linecap="round" stroke-linejoin="round"/>
<path d="M394.09 261.33L397.31 244.09H398.95L395.74 261.33H402.08V262.51H395.52H393.88L394.09 261.33Z" fill="white" stroke="#001E1D" stroke-width="0.75" stroke-linecap="round" stroke-linejoin="round"/>
<path d="M403.53 254.7L401.74 255.04L398.7 231.35L400.49 231L403.53 254.7Z" fill="white" stroke="#001E1D" stroke-width="0.75" stroke-linecap="round" stroke-linejoin="round"/>
<path d="M398.95 232.59L397.31 235.32L399.86 253.93L401.74 255.04L398.95 232.59Z" fill="white" stroke="#001E1D" stroke-width="0.75" stroke-linecap="round" stroke-linejoin="round"/>
<path d="M406.18 262.41H421.42V261.53H406.18V262.41Z" fill="white" stroke="#001E1D" stroke-width="0.75" stroke-linecap="round" stroke-linejoin="round"/>
<path d="M436.86 266.17H340.56V333.95H436.86V266.17Z" fill="white" stroke="#001E1D" stroke-linecap="round" stroke-linejoin="round"/>
<path d="M382.27 287.64H335.63V333.96H382.27V287.64Z" fill="white" stroke="#001E1D" stroke-linecap="round" stroke-linejoin="round"/>
<path d="M443.03 287.64H396.39V333.96H443.03V287.64Z" fill="white" stroke="#001E1D" stroke-linecap="round" stroke-linejoin="round"/>
<path d="M438.71 262.05H338.71V266.49H438.71V262.05Z" fill="white" stroke="#001E1D" stroke-linecap="round" stroke-linejoin="round"/>
<path d="M176.46 258.82H156.78C154.571 258.82 152.78 260.611 152.78 262.82V280.04C152.78 282.249 154.571 284.04 156.78 284.04H176.46C178.669 284.04 180.46 282.249 180.46 280.04V262.82C180.46 260.611 178.669 258.82 176.46 258.82Z" fill="#B5B5B5" stroke="#001E1D" stroke-linecap="round" stroke-linejoin="round"/>
<path d="M169.3 222.59C169.3 222.59 173.3 219.68 176.46 223.04C179.62 226.4 177.35 228.4 177.13 231.31C176.91 234.22 182.5 235.78 181.38 239.8C180.26 243.82 176.01 244.28 176.24 246.06C176.47 247.84 178.47 248.06 176.01 250.06C173.55 252.06 167.74 251.85 164.83 248.06C161.92 244.27 165.95 241.13 166.83 237.55C167.71 233.97 164.83 229.95 164.59 227.04C164.35 224.13 169.3 222.59 169.3 222.59Z" fill="#001E1D" stroke="#001E1D" stroke-linecap="round" stroke-linejoin="round"/>
<path d="M178.47 270.75L175.89 247.14C175.89 247.14 163.72 242.71 160.14 242.71C159.24 242.71 148.21 247.14 148.21 247.14L143.29 261.49L143.47 261.73C143.871 262.252 144.373 262.687 144.946 263.009C145.519 263.332 146.152 263.535 146.806 263.607C147.46 263.679 148.121 263.618 148.751 263.428C149.381 263.238 149.965 262.922 150.47 262.5L150.97 262.09L153.92 270.93L170.66 270.61L172.59 270.75H178.47Z" fill="white" stroke="#001E1D" stroke-linecap="round" stroke-linejoin="round"/>
<path d="M150.67 261.59L151.2 252.1" stroke="#001E1D" stroke-linecap="round" stroke-linejoin="round"/>
<path d="M171.58 268.97L170.87 253" stroke="#001E1D" stroke-linecap="round" stroke-linejoin="round"/>
<path d="M161.26 238.91C161.26 238.91 157.68 239.8 156.78 241.37C155.88 242.94 154.1 251.21 154.1 251.21L161.93 247.85L168.19 253C168.19 253 169.75 245.84 168.63 242.93C167.51 240.02 163.49 238 161.26 238.91Z" fill="white" stroke="#001E1D" stroke-linecap="round" stroke-linejoin="round"/>
<path d="M160.36 237.12C160.36 237.12 159.47 251.43 161.03 250.54C162.59 249.65 166.85 237.54 166.85 237.54L160.36 237.12Z" fill="white" stroke="#001E1D" stroke-linecap="round" stroke-linejoin="round"/>
<path d="M156.16 228.65C156.16 228.65 154.01 226.65 153.65 229.6C153.29 232.55 156.65 233.19 156.65 233.19L156.16 228.65Z" fill="white" stroke="#001E1D" stroke-linecap="round" stroke-linejoin="round"/>
<path d="M169.74 228.65C169.74 228.65 171.89 226.65 172.25 229.6C172.61 232.55 169.25 233.19 169.25 233.19L169.74 228.65Z" fill="white" stroke="#001E1D" stroke-linecap="round" stroke-linejoin="round"/>
<path d="M170.38 228.26C170.38 233.26 167.12 239.58 163.1 239.58C159.08 239.58 155.82 233.28 155.82 228.26C155.82 223.24 159.08 219.15 163.1 219.15C167.12 219.15 170.38 223.23 170.38 228.26Z" fill="white" stroke="#001E1D" stroke-linecap="round" stroke-linejoin="round"/>
<path d="M168.47 222.14C168.003 222.748 167.724 223.478 167.668 224.242C167.611 225.006 167.778 225.77 168.15 226.44C168.345 226.957 168.641 227.43 169.02 227.832C169.4 228.234 169.855 228.556 170.36 228.78C170.36 228.61 170.36 228.43 170.36 228.26C170.39 226.072 169.729 223.93 168.47 222.14Z" fill="#001E1D" stroke="#001E1D" stroke-linecap="round" stroke-linejoin="round"/>
<path d="M168.45 222.1C167.857 221.219 167.062 220.492 166.131 219.979C165.201 219.466 164.162 219.182 163.1 219.15C159.1 219.15 155.82 223.23 155.82 228.26C160.068 227.235 164.067 225.368 167.58 222.77C167.87 222.56 168.16 222.33 168.45 222.1Z" fill="#001E1D" stroke="#001E1D" stroke-linecap="round" stroke-linejoin="round"/>
<path d="M146.36 256.67C146.36 256.67 142.67 255.75 141.13 256.98C140.085 257.987 139.34 259.264 138.98 260.67H144.82L147.28 259.75C147.28 259.75 147.59 261.28 149.44 260.05C151.29 258.82 146.36 256.67 146.36 256.67Z" fill="white" stroke="#001E1D" stroke-linecap="round" stroke-linejoin="round"/>
<path d="M163.22 327.8V300.9H167.01V295.41H157.22V300.9H161.02V327.44L142.65 332.22V333.62H144.64L161.02 330.54V333.62H163.22V330.8L178.19 333.62H180.19V332.22L163.22 327.8Z" fill="#001E1D"/>
<path d="M176.58 288.92H146.03C144.705 288.92 143.63 289.994 143.63 291.32V294.11C143.63 295.435 144.705 296.51 146.03 296.51H176.58C177.905 296.51 178.98 295.435 178.98 294.11V291.32C178.98 289.994 177.905 288.92 176.58 288.92Z" fill="#B5B5B5" stroke="#001E1D" stroke-linecap="round" stroke-linejoin="round"/>
<path d="M153.88 270.93C153.88 270.93 150.57 279.18 147.88 279.6C135.88 281.51 132.41 286.72 132.41 286.72C132.061 287.981 132.174 289.325 132.73 290.51C133.73 292.08 145.04 326.19 145.04 326.19L138.73 333.76H141.25C141.25 333.76 146.31 332.82 147.25 331.24C148.19 329.66 149.46 328.4 149.78 327.13C150.1 325.86 150.73 325.55 149.46 324.29C148.764 323.563 147.898 323.02 146.94 322.71L143.63 291.32L155.78 324.92C155.78 324.92 160.57 332.52 161.02 333.62C161.47 334.72 165.25 333.13 163.02 329.03C161.96 326.846 160.454 324.908 158.6 323.34L153.23 290.19L172.18 288.93C173.053 288.579 173.796 287.964 174.304 287.173C174.813 286.381 175.063 285.45 175.02 284.51C175.02 281.03 170.6 270.61 170.6 270.61L153.88 270.93Z" fill="#001E1D" stroke="#001E1D" stroke-linecap="round" stroke-linejoin="round"/>
<path d="M171.58 269L157.43 277.61L151.59 278.54L148.52 281C148.52 281 155.28 281.86 157.13 281.24C158.149 280.933 159.09 280.411 159.89 279.71L175.58 274.17C175.58 274.17 178.65 271.4 178.35 269.86C178.05 268.32 171.58 268.05 171.58 269Z" fill="white" stroke="#001E1D" stroke-linecap="round" stroke-linejoin="round"/>
<path d="M132.73 290.51C133.73 292.08 144.28 322.9 144.28 322.9L142.28 330.73L138.76 333.73H141.28C141.28 333.73 146.34 332.79 147.28 331.21C148.22 329.63 149.49 328.37 149.81 327.1C150.13 325.83 150.76 325.52 149.49 324.26C148.794 323.533 147.928 322.99 146.97 322.68L143.66 291.29L155.81 324.89C155.81 324.89 160.6 332.49 161.05 333.59C161.5 334.69 165.28 333.1 163.05 329C161.99 326.816 160.484 324.878 158.63 323.31L153.26 290.16L154.03 290.11C154.03 290.11 153.24 286.95 152.32 286.69C137.99 282.62 132.42 286.69 132.42 286.69C132.06 287.959 132.17 289.315 132.73 290.51Z" fill="white" stroke="#001E1D" stroke-linecap="round" stroke-linejoin="round"/>
<path d="M143.63 291.32C143.63 291.32 141.22 286.46 141.41 285.51Z" fill="white"/>
<path d="M143.63 291.32C143.63 291.32 141.22 286.46 141.41 285.51" stroke="#001E1D" stroke-linecap="round" stroke-linejoin="round"/>
<path d="M232.81 275.89L208.81 282.96C208.52 283.044 208.252 283.193 208.028 283.396C207.804 283.598 207.628 283.849 207.515 284.129C207.401 284.409 207.353 284.711 207.372 285.013C207.392 285.314 207.481 285.607 207.63 285.87L227.05 326.37L218.94 334L227.66 332.14L235.49 328.95L234.33 324L220.22 289.94C220.15 289.756 220.126 289.558 220.15 289.363C220.174 289.167 220.245 288.981 220.357 288.819C220.47 288.658 220.62 288.526 220.794 288.436C220.969 288.345 221.163 288.299 221.36 288.3H251C251 288.3 257 282.71 251.2 275.12L232.81 275.89Z" fill="#001E1D" stroke="#001E1D" stroke-linecap="round" stroke-linejoin="round"/>
<path d="M233 244.3L217.28 253.54L213.21 257.75L215.76 259.61L231.63 257.37L233 244.3Z" fill="white" stroke="#001E1D" stroke-width="0.75" stroke-linecap="round" stroke-linejoin="round"/>
<path d="M219.84 243.45C219.84 243.45 211.58 254.93 211.56 256.01C211.54 257.09 213.56 258.78 214.86 259.49C216.16 260.2 218.64 258.3 218.64 258.3L222.51 245.06L219.84 243.45Z" fill="white" stroke="#001E1D" stroke-width="0.75" stroke-linecap="round" stroke-linejoin="round"/>
<path d="M230.46 245.33L229.32 272.26C229.284 273.174 229.612 274.066 230.23 274.74C230.555 275.102 230.953 275.391 231.398 275.589C231.842 275.788 232.323 275.89 232.81 275.89H249.37C250.044 275.888 250.704 275.69 251.268 275.321C251.832 274.952 252.278 274.427 252.55 273.81L252.76 273.36C253.064 272.668 253.137 271.897 252.97 271.16C251.68 265.64 246.08 244.43 244.84 242.16C243.44 239.56 238.65 237.76 238.65 237.76L230.46 245.33Z" fill="white" stroke="#001E1D" stroke-linecap="round" stroke-linejoin="round"/>
<path d="M225.78 238.97L225.97 236.71L224.32 236.33L223.55 237.77L221 238.43L219.78 243.85L222.6 245.2L227 240.47L225.78 238.97Z" fill="white" stroke="#001E1D" stroke-width="0.75" stroke-linecap="round" stroke-linejoin="round"/>
<path d="M225.78 239L222.19 238.74L221.99 239.74L223.99 240.29C223.99 240.29 222.45 241.34 222.3 241.93" fill="white"/>
<path d="M225.78 239L222.19 238.74L221.99 239.74L223.99 240.29C223.99 240.29 222.45 241.34 222.3 241.93" stroke="#001E1D" stroke-width="0.75" stroke-linecap="round" stroke-linejoin="round"/>
<path d="M226.3 237.14L229.49 238.56L231.8 243.56L238.19 237.35L236.42 233.27C236.42 233.27 238.72 229.9 238.19 226.88C237.66 223.86 231.98 220.66 228.96 223.5C225.94 226.34 226.3 237.14 226.3 237.14Z" fill="white" stroke="#001E1D" stroke-linecap="round" stroke-linejoin="round"/>
<path d="M225.59 222.94C225.59 222.94 224.17 221.17 224.17 219.94C224.17 218.71 227.01 217.28 228.43 217.28C229.85 217.28 236.06 217.64 238.19 219.59C239.287 220.687 240.09 222.042 240.525 223.531C240.96 225.02 241.013 226.595 240.68 228.11C239.97 231.11 237.84 233.79 235.68 233.97C233.52 234.15 232.13 231.66 231.77 230.77C230.623 228.548 229.316 226.413 227.86 224.38C227.252 223.699 226.466 223.2 225.59 222.94Z" fill="#001E1D" stroke="#001E1D" stroke-linecap="round" stroke-linejoin="round"/>
<path d="M225.94 221.7L224.34 226.49V227.74L222 230L223.77 232.13L223.59 236.75L227.59 237.04C228.537 237.109 229.482 236.872 230.284 236.364C231.087 235.857 231.706 235.105 232.05 234.22L232.99 231.78C233.483 231.583 233.901 231.237 234.188 230.791C234.475 230.345 234.615 229.82 234.59 229.29C234.59 227.29 234.77 226.63 233.7 226.63C232.922 226.657 232.151 226.775 231.4 226.98L230.33 226.45L230.51 224.68L228.91 223.43L228.73 221.66L225.94 221.7Z" fill="white" stroke="#001E1D" stroke-linecap="round" stroke-linejoin="round"/>
<path d="M237.65 234.75L228.27 243.93L230.06 248.93L240.05 237.74L237.65 234.75Z" fill="white" stroke="#001E1D" stroke-linecap="round" stroke-linejoin="round"/>
<path d="M237.65 242.74L230.07 257.91L211.29 258.31C211.29 258.31 203.9 256.71 202.71 256.51C201.52 256.31 198.11 260.31 198.11 260.31H210.11L233.47 265.7L245.47 250.32" fill="white"/>
<path d="M237.65 242.74L230.07 257.91L211.29 258.31C211.29 258.31 203.9 256.71 202.71 256.51C201.52 256.31 198.11 260.31 198.11 260.31H210.11L233.47 265.7L245.47 250.32" stroke="#001E1D" stroke-linecap="round" stroke-linejoin="round"/>
<path d="M211.27 260.58L211.7 258.3H211.29C211.29 258.3 203.9 256.7 202.71 256.5C201.52 256.3 198.11 260.3 198.11 260.3H210.11L211.27 260.58Z" fill="white" stroke="#001E1D" stroke-linecap="round" stroke-linejoin="round"/>
<path d="M241.65 326.55V299.65H245.44V296.06H235.66V299.65H239.45V326.18L221.08 330.97V332.37H223.08L239.45 329.28V332.37H241.65V329.55L256.63 332.37H258.62V330.97L241.65 326.55Z" fill="#001E1D"/>
<path d="M231.06 296.25H260.22L263.04 291.61C264.086 289.891 264.716 287.952 264.879 285.946C265.042 283.941 264.734 281.925 263.98 280.06L262.22 275.69" stroke="#001E1D" stroke-width="2" stroke-linecap="round" stroke-linejoin="round"/>
<path d="M253.43 287.67H222.88C221.555 287.67 220.48 288.744 220.48 290.07V292.86C220.48 294.185 221.555 295.26 222.88 295.26H253.43C254.755 295.26 255.83 294.185 255.83 292.86V290.07C255.83 288.744 254.755 287.67 253.43 287.67Z" fill="#B5B5B5" stroke="#001E1D" stroke-linecap="round" stroke-linejoin="round"/>
<path d="M262.843 259.416L259.679 259.006C258.803 258.892 258.001 259.511 257.887 260.387L255.037 282.363C254.923 283.239 255.541 284.042 256.417 284.156L259.581 284.566C260.457 284.679 261.26 284.061 261.374 283.185L264.224 261.209C264.337 260.333 263.719 259.53 262.843 259.416Z" fill="#B5B5B5" stroke="#001E1D" stroke-linecap="round" stroke-linejoin="round"/>
<path d="M194.86 260.34H186.14L181.42 246.71H190.13L194.86 260.34Z" fill="white" stroke="#001E1D" stroke-width="0.75" stroke-linecap="round" stroke-linejoin="round"/>
<path d="M208.27 259H186.14V260.34H208.27V259Z" fill="white" stroke="#001E1D" stroke-width="0.75" stroke-linecap="round" stroke-linejoin="round"/>
<path d="M208.27 259H198.42V260.34H208.27V259Z" fill="white" stroke="#001E1D" stroke-width="0.75" stroke-linecap="round" stroke-linejoin="round"/>
<path d="M144.86 246.61H121.75V258.95H144.86V246.61Z" fill="white" stroke="#001E1D" stroke-width="0.75" stroke-linecap="round" stroke-linejoin="round"/>
<path d="M158.23 259.12H121.75V260.34H158.23V259.12Z" fill="white" stroke="#001E1D" stroke-width="0.75" stroke-linecap="round" stroke-linejoin="round"/>
<path d="M158.23 259.12H144.68V260.34H158.23V259.12Z" fill="white" stroke="#001E1D" stroke-width="0.75" stroke-linecap="round" stroke-linejoin="round"/>
<path d="M216.38 333.95H218.62L219.74 267.72H215.26L216.38 333.95Z" fill="white" stroke="#001E1D" stroke-linecap="round" stroke-linejoin="round"/>
<path d="M112.87 333.95H115.11L116.22 267.72H111.75L112.87 333.95Z" fill="white" stroke="#001E1D" stroke-linecap="round" stroke-linejoin="round"/>
<path d="M222.65 261.91H108.85V269.29H222.65V261.91Z" fill="white" stroke="#001E1D" stroke-linecap="round" stroke-linejoin="round"/>
<path d="M224.6 260.1H106.61V262.81H224.6V260.1Z" fill="#001E1D" stroke="#001E1D" stroke-linecap="round" stroke-linejoin="round"/>
<path d="M85.33 210.48L73.19 215.54L79.26 249.2H103.81L105.83 217.06L94.85 210.59L85.33 210.48Z" fill="white" stroke="#001E1D" stroke-linecap="round" stroke-linejoin="round"/>
<path d="M88.02 217.49L90.23 221.6L87.39 238.35L90.55 244.68L96.24 237.09L92.13 221.6L93.71 217.81L90.55 213.07L88.02 217.49Z" fill="#ABD1C6" stroke="#001E1D" stroke-linecap="round" stroke-linejoin="round"/>
<path d="M87.6 208.19C87.6 208.19 85.79 208.39 85.38 209.4C84.97 210.41 85.59 220.1 85.59 220.1L90.83 217.1L95.83 220.1C95.83 220.1 95.22 213.64 93.83 210.61C92.44 207.58 87.6 208.19 87.6 208.19Z" fill="white" stroke="#001E1D" stroke-linecap="round" stroke-linejoin="round"/>
<path d="M86.85 205.92C86.85 205.92 86.6 208.45 86.6 209.97C86.6 211.49 89.89 218.07 90.9 217.56C91.91 217.05 94.44 213 94.44 213L95.71 211.48L98.24 209.2C98.24 209.2 92.33 202.53 90.65 202.12C88.97 201.71 86.85 205.92 86.85 205.92Z" fill="white" stroke="#001E1D" stroke-linecap="round" stroke-linejoin="round"/>
<path d="M98 195.33C98 195.33 99.42 193.55 99.42 192.33C99.42 191.11 96.58 189.67 95.16 189.67C93.74 189.67 87.53 190.02 85.4 191.98C84.3016 193.076 83.4975 194.431 83.0622 195.921C82.6269 197.41 82.5746 198.985 82.91 200.5C83.62 203.5 85.75 206.18 87.91 206.36C90.07 206.54 91.46 204.05 91.82 203.16C92.959 200.936 94.2626 198.8 95.72 196.77C96.3297 196.085 97.1198 195.586 98 195.33Z" fill="#001E1D" stroke="#001E1D" stroke-linecap="round" stroke-linejoin="round"/>
<path d="M97.66 194.09L99.26 198.88V200.12L101.57 202.43L99.79 204.56L99.97 209.18L95.97 209.47C95.0225 209.54 94.0774 209.304 93.2744 208.796C92.4713 208.289 91.8527 207.536 91.51 206.65L90.51 204.21C90.0351 203.998 89.6363 203.645 89.3665 203.201C89.0967 202.756 88.9689 202.239 89 201.72C89 199.77 88.82 199.06 89.88 199.06C90.661 199.087 91.4362 199.204 92.19 199.41L93.26 198.88L93.08 197.1L94.68 195.86L94.85 194.09H97.66Z" fill="white" stroke="#001E1D" stroke-linecap="round" stroke-linejoin="round"/>
<path d="M79.26 249.2L74.71 324.86H79.52L90.9 267.16H93.18L103.55 324.86L108.36 324.6L103.81 249.2H79.26Z" fill="#001E1D" stroke="#001E1D" stroke-linecap="round" stroke-linejoin="round"/>
<path d="M73.19 215.54L67.79 234.54L55.11 225L52.65 228.38L69.02 244.38L77.02 236.07C77.02 236.07 74.29 220.5 73.19 215.54Z" fill="white" stroke="#001E1D" stroke-linecap="round" stroke-linejoin="round"/>
<path d="M104 215.52L93.26 235.25L74.9 244.25L75.76 247.4L100.08 242.57L107.77 230C107.77 230 111 216.46 104 215.52Z" fill="white" stroke="#001E1D" stroke-linecap="round" stroke-linejoin="round"/>
<path d="M55.11 225L53.58 221L49.58 219.16L48.04 219.77L49.88 221L46.19 219.77L44.04 217.62L42.5 217.92L45.27 224.08L52.65 228.38L55.11 225Z" fill="white" stroke="#001E1D" stroke-linecap="round" stroke-linejoin="round"/>
<path d="M74.9 244.25L69.99 242.69L66.24 245L65.91 246.62L67.95 245.76L64.89 248.16L61.9 248.77L61.31 250.22L67.97 251.31L75.63 247.53L74.9 244.25Z" fill="white" stroke="#001E1D" stroke-linecap="round" stroke-linejoin="round"/>
<path d="M74.71 324.86L71.33 329.61L66.47 333.95H79.51L79.52 324.86H74.71Z" fill="#001E1D" stroke="#001E1D" stroke-linecap="round" stroke-linejoin="round"/>
<path d="M108.36 324.6L111.74 329.61L116.6 333.95H103.56L103.55 324.86L108.36 324.6Z" fill="#001E1D" stroke="#001E1D" stroke-linecap="round" stroke-linejoin="round"/>
<path d="M42.69 190.88H38.15V277.78H42.69V190.88Z" fill="#001E1D" stroke="#001E1D" stroke-linecap="round" stroke-linejoin="round"/>
<path d="M46.12 190.88H41.58V277.78H46.12V190.88Z" fill="white" stroke="#001E1D" stroke-linecap="round" stroke-linejoin="round"/>
<path d="M48.09 277.78H35.52V281.21H48.09V277.78Z" fill="#001E1D" stroke="#001E1D" stroke-linecap="round" stroke-linejoin="round"/>
<path d="M38.19 239.68L18.38 333.41H22.18L40.47 245.01L38.19 239.68Z" fill="#001E1D" stroke="#001E1D" stroke-linecap="round" stroke-linejoin="round"/>
<path d="M41.81 279.49L52.28 332.64H56.1L45.43 279.68L41.81 279.49Z" fill="#001E1D" stroke="#001E1D" stroke-linecap="round" stroke-linejoin="round"/>
<path d="M255.78 408.78H383.78C384.631 408.79 385.444 409.133 386.045 409.735C386.647 410.336 386.99 411.149 387 412V483.45H252.52V412C252.528 411.142 252.875 410.321 253.486 409.718C254.097 409.114 254.922 408.777 255.78 408.78Z" fill="#7D7D7D" stroke="#001E1D" stroke-linecap="round" stroke-linejoin="round"/>
<path d="M255.78 445.9H383.78C384.645 445.9 385.474 446.243 386.085 446.855C386.697 447.466 387.04 448.295 387.04 449.16V483.49H252.52V449.16C252.519 448.732 252.602 448.307 252.765 447.911C252.929 447.515 253.169 447.155 253.472 446.852C253.775 446.549 254.135 446.309 254.531 446.145C254.927 445.982 255.352 445.899 255.78 445.9Z" fill="#7D7D7D" stroke="#001E1D" stroke-linecap="round" stroke-linejoin="round"/>
<path d="M252.26 455.64H387" stroke="#001E1D" stroke-linecap="round" stroke-linejoin="round"/>
<path d="M245.51 437H260.85C261.715 437 262.544 437.343 263.155 437.955C263.767 438.566 264.11 439.395 264.11 440.26V483.54H242.25V440.21C242.261 439.353 242.609 438.535 243.219 437.934C243.83 437.333 244.653 436.997 245.51 437Z" fill="#7D7D7D" stroke="#001E1D" stroke-linecap="round" stroke-linejoin="round"/>
<path d="M379.33 437H394.67C395.532 437 396.359 437.342 396.968 437.952C397.578 438.561 397.92 439.388 397.92 440.25V483.53H376.08V440.21C376.09 439.355 376.438 438.539 377.046 437.938C377.654 437.337 378.475 437 379.33 437Z" fill="#7D7D7D" stroke="#001E1D" stroke-linecap="round" stroke-linejoin="round"/>
<path d="M412.94 411.81C412.94 411.81 408.2 415.1 408.2 428.81V458H418.47V410.63L412.94 411.81Z" fill="#7D7D7D" stroke="#001E1D" stroke-linecap="round" stroke-linejoin="round"/>
<path d="M416.19 408.78H427.32C428.185 408.78 429.014 409.123 429.625 409.735C430.236 410.346 430.58 411.175 430.58 412.04V483.49H412.94V412C412.948 411.143 413.294 410.324 413.902 409.721C414.511 409.118 415.333 408.78 416.19 408.78Z" fill="#7D7D7D" stroke="#001E1D" stroke-linecap="round" stroke-linejoin="round"/>
<path d="M368.8 437H427.32C428.185 437 429.014 437.343 429.625 437.955C430.237 438.566 430.58 439.395 430.58 440.26V483.54H365.58V440.21C365.59 439.36 365.933 438.548 366.535 437.948C367.137 437.348 367.95 437.008 368.8 437Z" fill="#7D7D7D" stroke="#001E1D" stroke-linecap="round" stroke-linejoin="round"/>
<path d="M367.69 354.37H339.27C336.437 354.37 334.14 356.667 334.14 359.5V387.92C334.14 390.753 336.437 393.05 339.27 393.05H367.69C370.523 393.05 372.82 390.753 372.82 387.92V359.5C372.82 356.667 370.523 354.37 367.69 354.37Z" fill="#001E1D"/>
<path d="M349.995 349.84L329.616 370.219C327.691 372.144 327.691 375.265 329.616 377.191L349.995 397.57C351.92 399.495 355.042 399.495 356.967 397.57L377.346 377.191C379.271 375.265 379.271 372.144 377.346 370.219L356.967 349.84C355.042 347.915 351.92 347.915 349.995 349.84Z" fill="white"/>
<path d="M353.48 385.93C360.229 385.93 365.7 380.459 365.7 373.71C365.7 366.961 360.229 361.49 353.48 361.49C346.731 361.49 341.26 366.961 341.26 373.71C341.26 380.459 346.731 385.93 353.48 385.93Z" fill="#001E1D"/>
<path d="M278.01 179.12H270.66V337.7H278.01V179.12Z" fill="#ABD1C6"/>
<path d="M493 333.18H14V342.18H493V333.18Z" fill="#ABD1C6"/>
<path d="M14.66 483.49H492.83" stroke="#001E1D" stroke-linecap="round" stroke-linejoin="round"/>
<path d="M493 171.18H14V180.18H493V171.18Z" fill="#ABD1C6"/>
<path d="M159.538 381L155.376 366.455H158.736L161.143 376.561H161.264L163.92 366.455H166.797L169.446 376.582H169.574L171.982 366.455H175.341L171.179 381H168.182L165.412 371.49H165.298L162.536 381H159.538ZM176.987 381V366.455H186.788V368.99H180.062V372.456H186.284V374.991H180.062V378.464H186.816V381H176.987ZM191.74 381H188.445L193.466 366.455H197.429L202.443 381H199.148L195.504 369.778H195.391L191.74 381ZM191.534 375.283H199.318V377.683H191.534V375.283ZM204.194 381V366.455H207.269V378.464H213.505V381H204.194ZM213.171 368.99V366.455H225.117V368.99H220.664V381H217.624V368.99H213.171ZM227.085 381V366.455H230.16V372.456H236.403V366.455H239.471V381H236.403V374.991H230.16V381H227.085ZM246.635 381V366.455H249.711V372.456H255.953V366.455H259.022V381H255.953V374.991H249.711V381H246.635ZM261.557 381V366.455H271.358V368.99H264.632V372.456H270.854V374.991H264.632V378.464H271.387V381H261.557ZM276.31 381H273.015L278.036 366.455H281.999L287.013 381H283.718L280.075 369.778H279.961L276.31 381ZM276.104 375.283H283.888V377.683H276.104V375.283ZM288.764 381V366.455H291.839V378.464H298.075V381H288.764ZM297.741 368.99V366.455H309.688V368.99H305.234V381H302.195V368.99H297.741ZM311.655 381V366.455H314.73V372.456H320.973V366.455H324.041V381H320.973V374.991H314.73V381H311.655Z" fill="#001E1D"/>
<path d="M143.77 388.03L139.23 390.7V413.4H155.12V390.3L149.91 388.17L143.77 388.03Z" fill="white" stroke="#001E1D" stroke-linecap="round" stroke-linejoin="round"/>
<path d="M142.57 389V413.7H124.28L129.35 394.87C129.35 394.87 141.5 388.7 142.57 389Z" fill="#ABD1C6" stroke="#001E1D" stroke-linecap="round" stroke-linejoin="round"/>
<path d="M133.75 413.53V402.58" stroke="#001E1D" stroke-linecap="round" stroke-linejoin="round"/>
<path d="M152.18 389V413.7H170.47L165.39 394.87C165.39 394.87 153.25 388.7 152.18 389Z" fill="#ABD1C6" stroke="#001E1D" stroke-linecap="round" stroke-linejoin="round"/>
<path d="M160.99 413.53V402.58" stroke="#001E1D" stroke-linecap="round" stroke-linejoin="round"/>
<path d="M145 385.63C145 385.63 142.86 385.9 142.33 387.23C141.8 388.56 139.79 399.65 139.79 399.65L144.87 397.11L147.27 398.71L150.21 396.84L155.14 401.12C155.14 401.12 153.94 388.43 151.54 385.9C149.14 383.37 145 385.63 145 385.63Z" fill="white" stroke="#001E1D" stroke-linecap="round" stroke-linejoin="round"/>
<path d="M144.43 385.1C144.488 388.402 144.711 391.7 145.1 394.98C145.64 398.18 147.24 399.11 148.17 398.18C149.1 397.25 149.51 394.71 149.51 394.71L150.84 385.23L144.43 385.1Z" fill="white" stroke="#001E1D" stroke-linecap="round" stroke-linejoin="round"/>
<path d="M147.77 371.75C151.31 371.75 154.18 368.88 154.18 365.34C154.18 361.8 151.31 358.93 147.77 358.93C144.23 358.93 141.36 361.8 141.36 365.34C141.36 368.88 144.23 371.75 147.77 371.75Z" fill="#001E1D" stroke="#001E1D" stroke-linecap="round" stroke-linejoin="round"/>
<path d="M140.16 374.68C140.16 374.68 137.76 372.41 137.36 375.75C136.96 379.09 140.7 379.75 140.7 379.75L140.16 374.68Z" fill="white" stroke="#001E1D" stroke-linecap="round" stroke-linejoin="round"/>
<path d="M155.32 374.68C155.32 374.68 157.73 372.41 158.13 375.75C158.53 379.09 154.79 379.75 154.79 379.75L155.32 374.68Z" fill="white" stroke="#001E1D" stroke-linecap="round" stroke-linejoin="round"/>
<path d="M156 374.25C156 379.86 152.36 386.9 147.87 386.9C143.38 386.9 139.73 379.9 139.73 374.25C139.73 368.6 143.37 364.08 147.87 364.08C152.37 364.08 156 368.63 156 374.25Z" fill="white" stroke="#001E1D" stroke-linecap="round" stroke-linejoin="round"/>
<path d="M153.91 367.41C153.388 368.088 153.076 368.903 153.012 369.756C152.948 370.609 153.135 371.462 153.55 372.21C153.994 373.375 154.877 374.319 156.01 374.84C156.01 374.64 156.01 374.44 156.01 374.25C156.047 371.806 155.312 369.412 153.91 367.41Z" fill="#001E1D" stroke="#001E1D" stroke-linecap="round" stroke-linejoin="round"/>
<path d="M153.89 367.38C153.223 366.394 152.331 365.58 151.288 365.006C150.245 364.433 149.08 364.115 147.89 364.08C143.39 364.08 139.75 368.63 139.75 374.25C144.5 373.11 148.972 371.025 152.9 368.12L153.89 367.38Z" fill="#001E1D" stroke="#001E1D" stroke-linecap="round" stroke-linejoin="round"/>
<path d="M118.36 385.09H84.14V408.73H118.36V385.09Z" fill="#001E1D" stroke="#001E1D" stroke-linecap="round" stroke-linejoin="round"/>
<path d="M112.73 391.39H88.42V408.72H112.73V391.39Z" fill="#474747" stroke="#001E1D" stroke-linecap="round" stroke-linejoin="round"/>
<path d="M102.83 402.2H98.1V414.13H102.83V402.2Z" fill="#B5B5B5" stroke="#001E1D" stroke-linecap="round" stroke-linejoin="round"/>
<path d="M204.96 415.28H75.06V483.48H204.96V415.28Z" fill="#ABD1C6" stroke="#001E1D" stroke-linecap="round" stroke-linejoin="round"/>
<path d="M198.94 406.06H164V414.57H198.94V406.06Z" fill="white" stroke="#001E1D" stroke-linecap="round" stroke-linejoin="round"/>
<path d="M207.99 413.58H73.44V416.84H207.99V413.58Z" fill="#001E1D" stroke="#001E1D" stroke-linecap="round" stroke-linejoin="round"/>
<path d="M150.09 431.81H131.34C128.507 431.81 126.21 434.107 126.21 436.94V455.69C126.21 458.523 128.507 460.82 131.34 460.82H150.09C152.923 460.82 155.22 458.523 155.22 455.69V436.94C155.22 434.107 152.923 431.81 150.09 431.81Z" fill="#001E1D"/>
<path d="M137.227 429.285L123.686 442.826C121.76 444.751 121.76 447.873 123.686 449.798L137.227 463.339C139.152 465.264 142.274 465.264 144.199 463.339L157.74 449.798C159.665 447.873 159.665 444.751 157.74 442.826L144.199 429.285C142.274 427.359 139.152 427.359 137.227 429.285Z" fill="white"/>
<path d="M140.71 455.47C145.769 455.47 149.87 451.369 149.87 446.31C149.87 441.251 145.769 437.15 140.71 437.15C135.651 437.15 131.55 441.251 131.55 446.31C131.55 451.369 135.651 455.47 140.71 455.47Z" fill="#001E1D"/>
</svg>
