<svg width="462" height="651" viewBox="0 0 462 651" fill="none" xmlns="http://www.w3.org/2000/svg">
<g clip-path="url(#clip0_5_285)">
<path d="M187.409 473.372C406.392 425.07 431.188 563.135 433.869 601.841C403.615 551.275 346.748 497.527 240.451 486.922C338.482 508.294 392.063 565.348 421.179 617.484C233.146 696.912 187.409 473.372 187.409 473.372Z" fill="url(#paint0_linear_5_285)" fill-opacity="0.7"/>
<path d="M380.543 141.546C493.512 238.847 429.891 307.098 410.356 323.959C425.22 287.691 431.176 235.986 394.471 175.183C422.154 235.888 413.129 287.155 396.974 323.442C279.765 255.026 380.547 141.543 380.547 141.543L380.543 141.546Z" fill="url(#paint1_linear_5_285)" fill-opacity="0.7"/>
<path d="M58.679 205.336C356.559 175.559 377.695 357.061 375.194 408.804C339.933 347.149 239.939 248.966 126.883 231.602C239.052 266.066 327.871 367.586 361.269 429.483C99.5437 505.366 58.679 205.336 58.679 205.336Z" fill="url(#paint2_linear_5_285)" fill-opacity="0.7"/>
<path d="M522.289 246.135C325.573 371.316 399.971 492.623 426.401 523.098C418.32 468.373 432.3 360.113 493.167 295.056C436.654 382.76 439.063 464.111 455.885 523.882C652.653 444.336 522.293 246.14 522.293 246.14L522.289 246.135Z" fill="url(#paint3_linear_5_285)" fill-opacity="0.7"/>
</g>
<defs>
<linearGradient id="paint0_linear_5_285" x1="239.81" y1="436.052" x2="386.577" y2="642.128" gradientUnits="userSpaceOnUse">
<stop stop-color="#8EBD40"/>
<stop offset="1" stop-color="#5E6E21" stop-opacity="0.25"/>
</linearGradient>
<linearGradient id="paint1_linear_5_285" x1="341.202" y1="169.565" x2="437.429" y2="304.677" gradientUnits="userSpaceOnUse">
<stop stop-color="#8EBD40"/>
<stop offset="1" stop-color="#5E6E21" stop-opacity="0.25"/>
</linearGradient>
<linearGradient id="paint2_linear_5_285" x1="116.443" y1="164.197" x2="324.187" y2="455.893" gradientUnits="userSpaceOnUse">
<stop stop-color="#8EBD40"/>
<stop offset="1" stop-color="#5E6E21" stop-opacity="0.25"/>
</linearGradient>
<linearGradient id="paint3_linear_5_285" x1="424.39" y1="314.955" x2="537.634" y2="473.961" gradientUnits="userSpaceOnUse">
<stop stop-color="#8EBD40"/>
<stop offset="1" stop-color="#5E6E21" stop-opacity="0.25"/>
</linearGradient>
<clipPath id="clip0_5_285">
<rect width="426" height="546" fill="white" transform="translate(0 247.127) rotate(-35.4584)"/>
</clipPath>
</defs>
</svg>
